<?xml version="1.0" encoding="utf-8"?>
<!-- Generator: Adobe Illustrator 22.0.1, SVG Export Plug-In . SVG Version: 6.00 Build 0)  -->
<svg version="1.1" id="Layer_1" xmlns="http://www.w3.org/2000/svg" xmlns:xlink="http://www.w3.org/1999/xlink" x="0px" y="0px"
	 viewBox="0 0 360 360" style="enable-background:new 0 0 360 360;" xml:space="preserve">
<style type="text/css">
	.st0{fill:#51534A;}
	.st1{fill:#FFFFFF;}
</style>
<g>
	<g>
		<path class="st0" d="M124.8,242.8c-0.3-1.1-0.8-2.4-2.3-2.4c-1.4,0-2,1-2,2c0,1.3,0.9,1.9,2.3,2.6c1.4,0.7,3.1,1.5,3.1,3.5
			c0,1.9-1.6,3.4-3.9,3.4c-0.7,0-1.3-0.1-1.7-0.3c-0.4-0.2-0.7-0.3-0.9-0.4c-0.1-0.4-0.4-1.9-0.5-2.7l0.5-0.1
			c0.3,1.1,1.1,2.9,2.9,2.9c1.3,0,2.1-0.8,2.1-2.1c0-1.3-1-1.9-2.3-2.6c-1.1-0.6-2.9-1.5-2.9-3.5c0-1.7,1.4-3.2,3.7-3.2
			c0.8,0,1.6,0.2,2.2,0.4c0.1,0.6,0.2,1.3,0.3,2.4L124.8,242.8z"/>
		<path class="st0" d="M136.7,251.6v-0.5c1-0.1,1.2-0.2,1.2-1.4v-3c0-1.3-0.4-2.1-1.6-2.1c-0.6,0-1.3,0.4-2,0.9
			c0,0.2,0.1,0.4,0.1,0.7v3.5c0,1.1,0.2,1.2,1.1,1.3v0.5h-3.8v-0.5c1.1-0.1,1.3-0.2,1.3-1.4v-3.1c0-1.3-0.5-2-1.5-2
			c-0.7,0-1.4,0.5-1.9,0.9v4.2c0,1.2,0.1,1.3,1,1.4v0.5h-3.7v-0.5c1.2-0.1,1.3-0.2,1.3-1.4v-3.7c0-1.1-0.1-1.2-1.1-1.4v-0.4
			c0.8-0.1,1.7-0.4,2.5-0.7v1.4c0.4-0.2,0.8-0.6,1.3-0.9c0.5-0.3,0.9-0.5,1.5-0.5c0.9,0,1.6,0.5,2,1.5c0.5-0.4,1-0.7,1.5-1
			c0.4-0.2,0.8-0.5,1.3-0.5c1.4,0,2.3,1,2.3,2.7v3.4c0,1.2,0.1,1.3,1.2,1.4v0.5H136.7z"/>
		<path class="st0" d="M141.5,251.6v-0.5c1.1-0.1,1.2-0.2,1.2-1.4v-3.7c0-1.1-0.1-1.2-1.1-1.3v-0.4c0.9-0.1,1.7-0.4,2.5-0.7v6.1
			c0,1.2,0.1,1.3,1.3,1.4v0.5H141.5z M142.4,241.2c0-0.5,0.4-0.9,0.9-0.9c0.5,0,0.9,0.4,0.9,0.9c0,0.5-0.4,0.9-0.9,0.9
			C142.8,242.1,142.4,241.7,142.4,241.2z"/>
		<path class="st0" d="M149.5,251.6c-0.3,0.2-0.6,0.2-0.7,0.2c-1.1,0-1.7-0.7-1.7-2.1v-5.2h-1.2l-0.1-0.2l0.5-0.5h0.8v-1.3l1.2-1.2
			l0.2,0v2.4h2c0.2,0.2,0.1,0.6-0.1,0.7h-1.9v4.6c0,1.4,0.6,1.7,1,1.7c0.4,0,0.9-0.2,1.1-0.3l0.2,0.5L149.5,251.6z"/>
		<path class="st0" d="M156.3,251.6v-0.5c1-0.1,1.2-0.2,1.2-1.4v-2.9c0-1.5-0.6-2.2-1.7-2.2c-0.7,0-1.3,0.3-1.8,0.9v4.2
			c0,1.1,0.1,1.3,1.1,1.4v0.5h-3.8v-0.5c1.1-0.1,1.2-0.2,1.2-1.4v-8.5c0-1.1,0-1.2-1.2-1.3v-0.4c0.9-0.1,1.9-0.4,2.6-0.6v6
			c0.6-0.6,1.6-1.3,2.5-1.3c1.4,0,2.4,0.9,2.4,3v3.1c0,1.2,0.1,1.3,1.2,1.4v0.5H156.3z"/>
		<path class="st0" d="M165.5,245.9c-0.3-1-1-1.8-1.8-1.8c-0.7,0-1.2,0.5-1.2,1.2c0,0.8,0.7,1.2,1.5,1.5c1.3,0.6,2.2,1.2,2.2,2.4
			c0,1.6-1.5,2.4-2.9,2.4c-0.9,0-1.7-0.3-2-0.6c-0.1-0.2-0.3-1.5-0.3-2.1l0.5-0.1c0.3,1.2,1.1,2.2,2.2,2.2c0.7,0,1.3-0.5,1.3-1.2
			c0-0.8-0.5-1.2-1.4-1.6c-1.1-0.5-2.2-1.1-2.2-2.4c0-1.2,1.1-2.3,2.7-2.3c0.7,0,1.2,0.2,1.6,0.3c0.1,0.4,0.3,1.5,0.4,1.9
			L165.5,245.9z"/>
		<path class="st0" d="M175.3,247.6c0,2.9-2.1,4.2-3.8,4.2c-2.4,0-3.9-2-3.9-3.9c0-2.9,2.3-4.3,3.9-4.3
			C173.7,243.6,175.3,245.4,175.3,247.6z M169.2,247.3c0,2.2,1,3.9,2.4,3.9c1.1,0,2-0.8,2-3.2c0-2.1-0.8-3.8-2.4-3.8
			C170.2,244.2,169.2,245.3,169.2,247.3z"/>
		<path class="st0" d="M181.4,251.6v-0.5c1-0.1,1.2-0.2,1.2-1.5v-3c0-1.2-0.4-2-1.6-2c-0.7,0-1.4,0.4-1.9,0.9v4.2
			c0,1.2,0.1,1.3,1.2,1.4v0.5h-3.9v-0.5c1.2-0.1,1.3-0.2,1.3-1.4v-3.7c0-1.1-0.1-1.2-1.1-1.4v-0.4c0.9-0.2,1.7-0.4,2.5-0.7v1.4
			c0.4-0.3,0.7-0.5,1.2-0.8c0.5-0.3,1-0.5,1.5-0.5c1.4,0,2.3,1,2.3,2.7v3.4c0,1.2,0.1,1.3,1.1,1.4v0.5H181.4z"/>
		<path class="st0" d="M186.1,251.6v-0.5c1.1-0.1,1.2-0.2,1.2-1.4v-3.7c0-1.1-0.1-1.2-1.1-1.3v-0.4c0.9-0.1,1.7-0.4,2.5-0.7v6.1
			c0,1.2,0.1,1.3,1.3,1.4v0.5H186.1z M187,241.2c0-0.5,0.4-0.9,0.9-0.9c0.5,0,0.9,0.4,0.9,0.9c0,0.5-0.4,0.9-0.9,0.9
			C187.4,242.1,187,241.7,187,241.2z"/>
		<path class="st0" d="M196.5,251.8c-0.3,0-0.6-0.2-0.8-0.3c-0.2-0.2-0.3-0.5-0.4-0.8c-0.7,0.5-1.6,1.1-2.1,1.1
			c-1.3,0-2.1-1-2.1-2.2c0-0.9,0.5-1.4,1.4-1.8c1.1-0.4,2.4-0.8,2.7-1.2v-0.3c0-1.3-0.6-2-1.5-2c-0.4,0-0.6,0.1-0.8,0.4
			c-0.2,0.2-0.4,0.6-0.5,1.2c-0.1,0.3-0.3,0.4-0.5,0.4c-0.3,0-0.8-0.4-0.8-0.8c0-0.3,0.2-0.5,0.6-0.7c0.5-0.4,1.7-1,2.7-1.2
			c0.5,0,1.1,0.2,1.5,0.5c0.6,0.5,0.8,1.2,0.8,2.2v3.3c0,0.8,0.3,1.1,0.6,1.1c0.2,0,0.5-0.1,0.6-0.2l0.2,0.5L196.5,251.8z
			 M195.2,247.3c-0.4,0.2-1.2,0.6-1.6,0.7c-0.7,0.3-1.1,0.7-1.1,1.3c0,0.9,0.7,1.4,1.3,1.4c0.5,0,1.1-0.3,1.4-0.6V247.3z"/>
		<path class="st0" d="M203.5,251.6v-0.5c1-0.1,1.2-0.2,1.2-1.5v-3c0-1.2-0.4-2-1.6-2c-0.7,0-1.4,0.4-1.9,0.9v4.2
			c0,1.2,0.1,1.3,1.2,1.4v0.5h-3.9v-0.5c1.2-0.1,1.3-0.2,1.3-1.4v-3.7c0-1.1-0.1-1.2-1.1-1.4v-0.4c0.9-0.2,1.7-0.4,2.5-0.7v1.4
			c0.4-0.3,0.7-0.5,1.2-0.8c0.5-0.3,1-0.5,1.5-0.5c1.4,0,2.3,1,2.3,2.7v3.4c0,1.2,0.1,1.3,1.1,1.4v0.5H203.5z"/>
		<g>
			<circle class="st0" cx="106.6" cy="245.3" r="7.4"/>
			<path class="st1" d="M111.1,246.8c-0.5-0.8-1.2-0.8-1.3-0.8c0,0,0,0,0,0l3.2-0.7l-3.2-0.7l0,0c0,0,0.7-0.6,1.6-0.6
				c0.7,0,1.3-0.9,0.9-1.5c0,0-0.1,1-1.4,0.7c-0.9-0.2-1.5,0.3-1.5,0.4c0,0,0,0,0,0l1.8-2.7l-2.7,1.8c0,0,0,0,0,0
				c0,0,0.1-0.9,0.7-1.5c0.5-0.5,0.3-1.5-0.4-1.7c0,0,0.7,0.8-0.5,1.5c-0.8,0.5-0.8,1.2-0.8,1.3c0,0,0,0,0,0l-0.7-3.2l-0.7,3.2
				c0,0,0,0,0,0c0,0-0.6-0.6-0.6-1.6c0-0.7-0.9-1.3-1.5-0.9c0,0,1,0.1,0.7,1.4c-0.2,0.9,0.3,1.5,0.4,1.5c0,0,0,0,0,0l-2.7-1.8l0,0
				l0,0l1.5,2.2l0.3,0.5c0,0,0,0,0,0c0,0-0.9,0-1.5-0.7c-0.5-0.5-1.5-0.3-1.7,0.4c0,0,0.8-0.7,1.5,0.5c0.5,0.8,1.2,0.8,1.3,0.8
				c0,0,0,0,0,0l-3.2,0.7l3.2,0.7v0c0,0-0.6,0.6-1.6,0.6c-0.7,0-1.3,0.9-0.9,1.5c0,0,0.1-1,1.4-0.7c0.9,0.2,1.5-0.3,1.5-0.4
				c0,0,0,0,0,0l-1.8,2.7l2.7-1.8c0,0,0,0.9-0.7,1.5c-0.5,0.5-0.3,1.5,0.4,1.7c0,0-0.7-0.8,0.5-1.5c0.8-0.5,0.8-1.2,0.8-1.3
				c0,0,0,0,0,0l0.7,3.2l0.7-3.2l0,0c0,0,0.6,0.6,0.6,1.6c0,0.7,0.9,1.3,1.5,0.9c0,0-1-0.1-0.7-1.4c0.2-0.9-0.3-1.5-0.4-1.5
				c0,0,0,0,0,0l2.7,1.8l-0.9-1.4l-0.8-1.3l0,0c0,0,0.9,0.1,1.5,0.7c0.5,0.5,1.5,0.3,1.7-0.4C112.5,247.3,111.7,248,111.1,246.8z"/>
		</g>
	</g>
	<g>
		<path class="st0" d="M99.2,105h2.9l14.8,21.3h0.1V105h2.3v24.3h-2.9L101.6,108h-0.1v21.3h-2.3V105z"/>
		<path class="st0" d="M132.7,105h2.3l10.2,24.3h-2.5l-2.6-6.5h-12.9l-2.7,6.5h-2.4L132.7,105z M133.8,107.4l-5.7,13.3h11.2
			L133.8,107.4z"/>
		<path class="st0" d="M151.1,107h-8.3V105h18.9v2.1h-8.3v22.3h-2.3V107z"/>
		<path class="st0" d="M164.7,105h2.3v24.3h-2.3V105z"/>
		<path class="st0" d="M171.4,117.1c0-1.9,0.3-3.6,0.9-5.1c0.6-1.6,1.5-2.9,2.6-4c1.1-1.1,2.4-2,4-2.7c1.5-0.6,3.2-1,5.1-1
			c1.9,0,3.6,0.3,5.1,1c1.5,0.6,2.9,1.5,4,2.7c1.1,1.1,2,2.5,2.6,4c0.6,1.6,0.9,3.3,0.9,5.1c0,1.9-0.3,3.6-0.9,5.1
			c-0.6,1.6-1.5,2.9-2.6,4.1c-1.1,1.1-2.4,2-4,2.6c-1.5,0.6-3.2,0.9-5.1,0.9c-1.9,0-3.6-0.3-5.1-0.9c-1.5-0.6-2.9-1.5-4-2.6
			c-1.1-1.1-2-2.5-2.6-4.1C171.7,120.7,171.4,119,171.4,117.1z M173.6,117.1c0,1.5,0.2,2.9,0.7,4.2c0.5,1.3,1.2,2.4,2.1,3.4
			c0.9,1,2,1.7,3.2,2.3c1.3,0.5,2.7,0.8,4.3,0.8c1.6,0,3-0.3,4.3-0.8c1.3-0.6,2.4-1.3,3.2-2.3c0.9-1,1.6-2.1,2.1-3.4
			c0.5-1.3,0.7-2.7,0.7-4.2c0-1.5-0.2-2.9-0.7-4.2c-0.5-1.3-1.2-2.4-2.1-3.4c-0.9-1-2-1.7-3.2-2.3c-1.3-0.6-2.7-0.8-4.3-0.8
			c-1.6,0-3,0.3-4.3,0.8c-1.3,0.5-2.4,1.3-3.2,2.3c-0.9,1-1.6,2.1-2.1,3.4C173.9,114.2,173.6,115.6,173.6,117.1z"/>
		<path class="st0" d="M200.9,105h2.9l14.8,21.3h0.1V105h2.3v24.3H218L203.2,108h-0.1v21.3h-2.3V105z"/>
		<path class="st0" d="M234.4,105h2.3l10.2,24.3h-2.5l-2.6-6.5h-12.9l-2.7,6.5h-2.4L234.4,105z M235.4,107.4l-5.7,13.3h11.2
			L235.4,107.4z"/>
		<path class="st0" d="M249.7,105h2.3v22.3h11.3v2.1h-13.6V105z"/>
		<path class="st0" d="M99.2,137.1h3.4l8.9,20.4l8.9-20.4h3.2v24.3h-2.3V140h-0.1l-9.3,21.4h-1l-9.4-21.4h-0.1v21.4h-2.3V137.1z"/>
		<path class="st0" d="M146.6,152.1c0,1.3-0.1,2.6-0.4,3.7c-0.3,1.2-0.8,2.2-1.5,3.2c-0.7,0.9-1.6,1.6-2.7,2.2
			c-1.1,0.6-2.5,0.8-4.2,0.8c-1.6,0-3-0.3-4.2-0.8c-1.1-0.5-2.1-1.3-2.7-2.2c-0.7-0.9-1.2-2-1.5-3.2c-0.3-1.2-0.4-2.4-0.4-3.7v-15
			h2.3v14.4c0,0.9,0.1,1.8,0.2,2.8c0.2,1,0.5,1.9,0.9,2.7c0.5,0.8,1.1,1.5,2,2.1c0.9,0.5,2,0.8,3.4,0.8c1.4,0,2.6-0.3,3.4-0.8
			c0.9-0.6,1.5-1.2,2-2.1c0.5-0.8,0.8-1.8,0.9-2.7c0.2-1,0.2-1.9,0.2-2.8v-14.4h2.3V152.1z"/>
		<path class="st0" d="M152.7,157c0.6,1,1.4,1.8,2.3,2.3c1,0.5,2,0.8,3.2,0.8c0.8,0,1.5-0.1,2.1-0.3c0.7-0.2,1.2-0.6,1.7-1
			c0.5-0.4,0.9-0.9,1.2-1.5c0.3-0.6,0.4-1.2,0.4-2c0-0.8-0.2-1.5-0.5-2.1c-0.4-0.6-0.8-1-1.4-1.4c-0.6-0.4-1.3-0.7-2-0.9
			c-0.7-0.3-1.5-0.5-2.3-0.8c-0.8-0.3-1.6-0.5-2.3-0.9c-0.7-0.3-1.4-0.7-2-1.3c-0.6-0.5-1.1-1.2-1.4-1.9c-0.4-0.8-0.5-1.7-0.5-2.9
			c0-1.1,0.2-2,0.6-2.9c0.4-0.8,1-1.5,1.7-2.1c0.7-0.6,1.6-1,2.5-1.3c0.9-0.3,1.9-0.4,3-0.4c1.3,0,2.6,0.2,3.7,0.7
			c1.1,0.5,2.1,1.3,2.9,2.4l-2,1.4c-0.6-0.8-1.2-1.4-2-1.8c-0.8-0.4-1.7-0.6-2.7-0.6c-0.7,0-1.4,0.1-2.1,0.3
			c-0.7,0.2-1.2,0.5-1.7,0.9c-0.5,0.4-0.9,0.9-1.2,1.4c-0.3,0.6-0.4,1.2-0.4,2c0,1.2,0.3,2.1,0.9,2.8c0.6,0.7,1.4,1.2,2.3,1.5
			c0.9,0.4,1.9,0.7,3,1c1.1,0.3,2.1,0.7,3,1.2c0.9,0.5,1.7,1.2,2.3,2c0.6,0.9,0.9,2,0.9,3.6c0,1.1-0.2,2.1-0.6,2.9
			c-0.4,0.8-1,1.6-1.7,2.1c-0.7,0.6-1.5,1-2.4,1.3c-0.9,0.3-1.9,0.4-2.9,0.4c-1.6,0-3.1-0.3-4.4-0.8c-1.4-0.6-2.5-1.5-3.5-2.8
			L152.7,157z"/>
		<path class="st0" d="M170.5,137.1h14.9v2.1h-12.6v8.7h11.8v2.1h-11.8v9.5h13.2v2.1h-15.4V137.1z"/>
		<path class="st0" d="M207.4,152.1c0,1.3-0.1,2.6-0.4,3.7c-0.3,1.2-0.8,2.2-1.5,3.2c-0.7,0.9-1.6,1.6-2.7,2.2
			c-1.1,0.6-2.5,0.8-4.2,0.8c-1.6,0-3-0.3-4.2-0.8c-1.1-0.5-2.1-1.3-2.7-2.2c-0.7-0.9-1.2-2-1.5-3.2c-0.3-1.2-0.4-2.4-0.4-3.7v-15
			h2.3v14.4c0,0.9,0.1,1.8,0.2,2.8c0.2,1,0.5,1.9,0.9,2.7c0.5,0.8,1.1,1.5,2,2.1c0.9,0.5,2,0.8,3.4,0.8c1.4,0,2.6-0.3,3.4-0.8
			c0.9-0.6,1.5-1.2,2-2.1c0.5-0.8,0.8-1.8,0.9-2.7c0.2-1,0.2-1.9,0.2-2.8v-14.4h2.3V152.1z"/>
		<path class="st0" d="M212.7,137.1h3.4l8.9,20.4l8.9-20.4h3.2v24.3h-2.3V140h-0.1l-9.3,21.4h-1L215,140h-0.1v21.4h-2.3V137.1z"/>
		<path class="st0" d="M245.6,156.5c0-4.5,2.4-7.9,5.2-9.4c1.2-0.7,2.6-1.1,3.7-1.1c2.9,0,4.6,2,4.6,5.4c0,3-1.3,6.3-3.7,8.3
			c-1.5,1.2-3.4,2.2-5.3,2.2C246.9,161.9,245.6,159.3,245.6,156.5z M252.5,160.3c1.9-0.8,3.7-4.4,3.7-8.8c0-2.8-1.2-4.1-2.8-4.1
			c-0.5,0-0.9,0.1-1.3,0.3c-1.3,0.6-3.6,3.4-3.6,8.7c0,2.5,1.1,4.2,2.9,4.2C251.8,160.5,252.2,160.4,252.5,160.3z"/>
		<path class="st0" d="M264,146.6c0.5-2.6,1.3-5.1,2.9-6.8c1.6-1.8,3.5-2.7,4.9-2.7c1.2,0,2.1,0.9,2.1,1.5c0,0.5-0.5,1.1-0.9,1.4
			c-0.3,0.2-0.6,0.2-0.9,0c-0.7-0.8-1.4-1.2-2.2-1.2c-1.3,0-2.3,1.6-3.3,7.9h3.9l-0.7,1.1l-3.4,0.3c-0.6,3.8-1,5.9-1.8,9.7
			c-1.2,5.9-2.5,8.5-4.4,10.4c-1.5,1.6-3,2.2-3.9,2.2c-1,0-2.2-0.7-2.1-1.5c0-0.4,0.4-1,0.9-1.4c0.3-0.2,0.4-0.2,0.7,0
			c0.6,0.5,1.5,0.9,2.2,0.9c0.6,0,1.1-0.3,1.5-0.7c0.4-0.5,1.3-2,2.4-8.6c0.8-4.7,1.3-7.6,1.9-11h-2.9l-0.1-0.4l1-1H264z"/>
		<path class="st0" d="M99.2,169.3h7.3l10.3,16.9h0.1v-16.9h5.4v24.3h-7l-10.6-17.3h-0.1v17.3h-5.4V169.3z"/>
		<path class="st0" d="M134.5,169.3h4.4l10.6,24.3h-6l-2.1-5.2H132l-2,5.2H124L134.5,169.3z M136.6,176.3l-3,7.6h5.9L136.6,176.3z"
			/>
		<path class="st0" d="M152.8,174h-6.9v-4.7h19.2v4.7h-6.9v19.6h-5.4V174z"/>
		<path class="st0" d="M187.6,184.2c0,1.4-0.2,2.8-0.7,4c-0.4,1.2-1.1,2.3-1.9,3.2c-0.9,0.9-1.9,1.6-3.2,2.1s-2.8,0.8-4.4,0.8
			c-1.7,0-3.2-0.3-4.5-0.8c-1.3-0.5-2.4-1.2-3.2-2.1c-0.9-0.9-1.5-1.9-1.9-3.2c-0.4-1.2-0.7-2.5-0.7-4v-14.9h5.4V184
			c0,0.8,0.1,1.5,0.4,2.1c0.2,0.6,0.6,1.2,1,1.7c0.4,0.5,1,0.8,1.6,1.1c0.6,0.3,1.3,0.4,2,0.4c0.7,0,1.4-0.1,2-0.4
			c0.6-0.3,1.1-0.6,1.5-1.1c0.4-0.5,0.8-1,1-1.7c0.2-0.6,0.4-1.3,0.4-2.1v-14.7h5.4V184.2z"/>
		<path class="st0" d="M190.5,169.3h9.4c1.2,0,2.4,0.1,3.5,0.4c1.1,0.2,2.1,0.6,2.9,1.2c0.8,0.6,1.5,1.3,2,2.3
			c0.5,1,0.7,2.1,0.7,3.6c0,1.7-0.4,3.2-1.3,4.4c-0.9,1.2-2.2,2-3.9,2.3l6.2,10.3h-6.4l-5.1-9.7h-2.6v9.7h-5.4V169.3z M195.9,179.3
			h3.2c0.5,0,1,0,1.5-0.1c0.5,0,1-0.1,1.5-0.3c0.4-0.2,0.8-0.4,1.1-0.8c0.3-0.4,0.4-0.9,0.4-1.5c0-0.6-0.1-1.1-0.4-1.5
			c-0.3-0.4-0.6-0.6-1-0.8c-0.4-0.2-0.8-0.3-1.3-0.4c-0.5-0.1-1-0.1-1.5-0.1h-3.5V179.3z"/>
		<path class="st0" d="M220,169.3h4.4l10.6,24.3h-6l-2.1-5.2h-9.5l-2,5.2h-5.9L220,169.3z M222.1,176.3l-3,7.6h5.9L222.1,176.3z"/>
		<path class="st0" d="M237,169.3h5.4v19.4h9.9v4.9H237V169.3z"/>
		<path class="st0" d="M99.2,201.4h5.4v9.1H115v-9.1h5.4v24.3H115v-10.5h-10.4v10.5h-5.4V201.4z"/>
		<path class="st0" d="M123.6,201.4h5.4v24.3h-5.4V201.4z"/>
		<path class="st0" d="M145.2,207.4c-0.4-0.5-1-1-1.8-1.2c-0.7-0.3-1.4-0.4-2.1-0.4c-0.4,0-0.8,0-1.2,0.1c-0.4,0.1-0.8,0.2-1.2,0.4
			c-0.4,0.2-0.7,0.5-0.9,0.8c-0.2,0.3-0.3,0.7-0.3,1.2c0,0.7,0.3,1.3,0.8,1.7c0.6,0.4,1.2,0.7,2.1,1c0.8,0.3,1.7,0.6,2.7,0.8
			c1,0.3,1.9,0.7,2.7,1.2c0.8,0.5,1.5,1.2,2.1,2c0.5,0.8,0.8,2,0.8,3.4c0,1.4-0.3,2.5-0.8,3.5c-0.5,1-1.2,1.8-2,2.5
			c-0.9,0.7-1.9,1.2-3,1.5c-1.1,0.3-2.3,0.5-3.6,0.5c-1.6,0-3-0.2-4.4-0.7c-1.4-0.5-2.6-1.3-3.8-2.3l3.8-4.2
			c0.5,0.7,1.2,1.3,2.1,1.7c0.8,0.4,1.7,0.6,2.6,0.6c0.4,0,0.9-0.1,1.3-0.2c0.4-0.1,0.8-0.3,1.2-0.5c0.4-0.2,0.6-0.5,0.9-0.8
			c0.2-0.3,0.3-0.7,0.3-1.1c0-0.7-0.3-1.3-0.8-1.7c-0.6-0.4-1.3-0.8-2.1-1.1c-0.8-0.3-1.8-0.6-2.7-0.9c-1-0.3-1.9-0.7-2.7-1.2
			c-0.8-0.5-1.6-1.2-2.1-2c-0.6-0.8-0.8-1.9-0.8-3.3c0-1.3,0.3-2.5,0.8-3.4c0.5-1,1.2-1.8,2.1-2.5c0.9-0.7,1.8-1.2,3-1.5
			c1.1-0.3,2.3-0.5,3.5-0.5c1.4,0,2.7,0.2,4,0.6c1.3,0.4,2.4,1,3.5,2L145.2,207.4z"/>
		<path class="st0" d="M156.9,206.2h-6.9v-4.7h19.2v4.7h-6.9v19.6h-5.4V206.2z"/>
		<path class="st0" d="M169.1,213.6c0-1.9,0.3-3.7,1-5.3c0.7-1.6,1.6-2.9,2.7-4c1.2-1.1,2.6-2,4.2-2.6c1.6-0.6,3.4-0.9,5.3-0.9
			c1.9,0,3.7,0.3,5.3,0.9c1.6,0.6,3,1.4,4.2,2.6c1.2,1.1,2.1,2.5,2.7,4c0.7,1.6,1,3.3,1,5.3c0,1.9-0.3,3.7-1,5.3
			c-0.7,1.6-1.6,2.9-2.7,4c-1.2,1.1-2.6,2-4.2,2.6c-1.6,0.6-3.4,0.9-5.3,0.9c-1.9,0-3.7-0.3-5.3-0.9c-1.6-0.6-3-1.4-4.2-2.6
			c-1.2-1.1-2.1-2.5-2.7-4C169.4,217.3,169.1,215.5,169.1,213.6z M174.6,213.6c0,1.1,0.2,2.2,0.5,3.1c0.4,1,0.9,1.8,1.5,2.5
			c0.7,0.7,1.5,1.2,2.4,1.6c0.9,0.4,2,0.6,3.1,0.6c1.1,0,2.2-0.2,3.1-0.6c0.9-0.4,1.7-0.9,2.4-1.6c0.7-0.7,1.2-1.5,1.5-2.5
			c0.4-1,0.5-2,0.5-3.1c0-1.1-0.2-2.2-0.5-3.1c-0.4-1-0.9-1.8-1.5-2.5c-0.7-0.7-1.5-1.2-2.4-1.6c-0.9-0.4-2-0.6-3.1-0.6
			c-1.1,0-2.2,0.2-3.1,0.6c-0.9,0.4-1.7,0.9-2.4,1.6c-0.7,0.7-1.2,1.5-1.5,2.5C174.8,211.4,174.6,212.5,174.6,213.6z"/>
		<path class="st0" d="M197.8,201.4h9.4c1.2,0,2.4,0.1,3.5,0.4c1.1,0.2,2.1,0.6,2.9,1.2c0.8,0.6,1.5,1.3,2,2.3
			c0.5,1,0.7,2.1,0.7,3.6c0,1.7-0.4,3.2-1.3,4.4c-0.9,1.2-2.2,2-3.9,2.3l6.2,10.3h-6.4l-5.1-9.7h-2.6v9.7h-5.4V201.4z M203.1,211.5
			h3.2c0.5,0,1,0,1.5-0.1c0.5,0,1-0.1,1.5-0.3c0.4-0.2,0.8-0.4,1.1-0.8c0.3-0.4,0.4-0.9,0.4-1.5c0-0.6-0.1-1.1-0.4-1.5
			c-0.3-0.4-0.6-0.6-1-0.8c-0.4-0.2-0.8-0.3-1.3-0.4c-0.5-0.1-1-0.1-1.5-0.1h-3.5V211.5z"/>
		<path class="st0" d="M224,215.4l-9.1-14h6.7l5.2,9.1l5.5-9.1h6.4l-9.1,14v10.4H224V215.4z"/>
	</g>
</g>
</svg>
